<svg xmlns="http://www.w3.org/2000/svg" viewBox="0 0 400 400"><g opacity=".2"><path d="M200 121.5c-40.7-27.8-107-34.7-109.9-35l-6.3-.6v214.8l5.5.2c56.6 2.3 106.6 31.6 107.7 32.3h5.9c1.1-.6 51-30 107.7-32.3l5.5-.2V85.9l-6.3.6c-2.8.3-69.1 7.3-109.8 35zm-5.7 174.1c-16.6-8.6-55-25.9-99-28.9v-168c17.6 2.4 67.8 11 99 32.7v164.2zm110.4-28.9c-43.9 3-82.3 20.3-99 28.9V131.5c5.3-3.7 11.1-6.9 17.2-9.9v90.9l15-33.1 17.3 25.7v-95.7c20.6-6.1 39.9-9.3 49.5-10.6v167.9z"/><path fill="#fff" d="M200 3.3C91.5 3.3 3.3 91.5 3.3 200S91.5 396.7 200 396.7 396.7 308.5 396.7 200 308.5 3.3 200 3.3zm0 381.9C97.9 385.2 14.8 302.1 14.8 200S97.9 14.8 200 14.8 385.2 97.9 385.2 200 302.1 385.2 200 385.2z"/></g></svg>